<svg width="57.492188" height="17.531250" viewBox="0 0 57.4922 17.5312" fill="none" xmlns="http://www.w3.org/2000/svg" xmlns:xlink="http://www.w3.org/1999/xlink">
	<desc>
			Created with Pixso.
	</desc>
	<defs/>
	<path d="M28.16 0.62Q28.01 0.9 28.01 1.25Q28.01 1.61 28.17 1.89Q28.24 2.02 28.34 2.13Q28.37 2.17 28.41 2.2Q28.73 2.48 29.29 2.48Q29.86 2.48 30.18 2.2Q30.22 2.17 30.25 2.13Q30.36 2.01 30.43 1.88Q30.58 1.6 30.58 1.25Q30.58 0.91 30.45 0.64Q30.37 0.49 30.25 0.36Q30.21 0.31 30.15 0.26Q29.83 0 29.29 0Q28.75 0 28.43 0.26Q28.38 0.31 28.34 0.36Q28.23 0.48 28.16 0.62ZM2.32 17.29L3.92 12.84L11.07 12.84L12.7 17.29L15.01 17.29L8.48 0.23L6.51 0.23L0 17.29L2.32 17.29ZM10.4 10.99L4.6 10.99L7.5 3.01L10.4 10.99ZM33.99 7.48Q33.25 8.97 33.25 10.83L33.25 10.99Q33.25 13.58 34.48 15.28Q34.66 15.51 34.85 15.73Q35.48 16.44 36.27 16.87Q37.47 17.53 39.03 17.53Q40.42 17.53 41.55 16.99Q41.81 16.86 42.06 16.71Q42.51 16.43 42.88 16.07Q43.62 15.39 44.09 14.41Q44.8 12.94 44.8 11.09L44.8 10.94Q44.8 8.29 43.53 6.58Q43.37 6.37 43.2 6.17Q42.57 5.47 41.8 5.05Q40.59 4.38 39.01 4.38Q37.69 4.38 36.61 4.87Q36.31 5.01 36.02 5.19Q35.69 5.39 35.4 5.64Q34.53 6.37 33.99 7.48ZM49.64 6.21L49.57 4.61L47.51 4.61L47.51 17.29L49.68 17.29L49.68 8.26Q49.98 7.65 50.43 7.19Q50.66 6.97 50.92 6.78Q51.16 6.62 51.41 6.5Q52.03 6.22 52.78 6.22Q54.06 6.22 54.68 6.86Q54.69 6.87 54.69 6.87Q55.31 7.53 55.32 8.9L55.32 17.29L57.49 17.29L57.49 8.91Q57.47 6.37 56.2 5.25Q55.2 4.38 53.43 4.38Q52.25 4.38 51.29 4.84Q50.36 5.3 49.64 6.21ZM23.7 4.61L20.56 14.35L17.34 4.61L15.12 4.61L19.72 17.29L21.37 17.29L25.92 4.61L23.7 4.61ZM28.19 17.29L30.36 17.29L30.36 4.61L28.19 4.61L28.19 17.29ZM36.41 14.48Q35.43 13.2 35.43 11.09Q35.43 8.71 36.42 7.44Q36.91 6.79 37.57 6.47Q38.21 6.16 39.01 6.16Q39.84 6.16 40.51 6.49Q41.15 6.82 41.64 7.45Q42.63 8.75 42.63 10.83Q42.63 13.17 41.66 14.46Q41.19 15.08 40.58 15.4Q39.9 15.76 39.03 15.76Q38.17 15.76 37.49 15.41Q36.88 15.09 36.41 14.48Z" fill="#22202E" fill-opacity="1.000000" fill-rule="evenodd"/>
</svg>
